<?xml version="1.0" encoding="utf-8"?>
<!-- Generator: Adobe Illustrator 24.3.0, SVG Export Plug-In . SVG Version: 6.00 Build 0)  -->
<svg version="1.1" id="mesa" xmlns="http://www.w3.org/2000/svg" xmlns:xlink="http://www.w3.org/1999/xlink" x="0px" y="0px"
	 viewBox="0 0 512 512" style="enable-background:new 0 0 512 512;" xml:space="preserve">
<style type="text/css">
	.st0{fill:#4FADBA;}
</style>
<g>
	<g>
		<path class="st0" d="M504.47,423.69c-4.16,0-7.53,3.37-7.53,7.53v50.32c0,0.7-0.57,1.27-1.27,1.27h-28.62V372.77
			c0-4.16-3.37-7.53-7.53-7.53c-4.16,0-7.53,3.37-7.53,7.53v110.04h-55.3l14.97-16.47c2.31-2.54,3.4-6.16,2.92-9.66
			c-0.01-0.08-0.02-0.15-0.04-0.22l-16.83-99.41l3.1-4.66l0.81,0.57c2.76,1.96,6.28,2.68,9.69,1.83c3.34-0.84,6.15-3.09,7.69-6.17v0
			l17.12-34.31l39.11,15.15c1.54,0.67,21.72,9.92,21.72,33.99v32.64c0,4.16,3.37,7.53,7.53,7.53c4.16,0,7.53-3.37,7.53-7.53v-32.64
			c0-34.75-29.81-47.41-31.08-47.93c-0.05-0.02-0.1-0.04-0.14-0.06l-66.59-25.79v-13.72c10.4-8.36,17.7-20.42,19.89-34.16
			c5.18-0.65,9.99-2.73,13.99-6.16c5.72-4.92,9.01-12.09,9.01-19.65c0-6.04-2.1-11.82-5.85-16.41v-20.32
			c0-39.77-32.36-72.13-72.13-72.13c-17.86,0-34.2,6.54-46.81,17.32c-0.16-5.77-2.23-11.27-5.83-15.67V88.44
			c0-39.77-32.36-72.13-72.13-72.13c-39.77,0-72.13,32.36-72.13,72.13v20.85c-3.62,4.33-5.65,9.54-5.82,15.08
			c-8.05-6.88-17.67-12.05-28.41-14.88c-4.03-1.06-8.14,1.34-9.2,5.37s1.34,8.14,5.37,9.2c25.02,6.59,42.49,29.28,42.49,55.18v11.26
			c-0.33-0.07-1.37-0.25-1.41-0.25c-0.1-2.13-0.64-3.42-1.8-5.09c-1.93-2.77-5.39-6.22-16.53-18.19
			c-3.97-4.26-10.39-5.05-15.26-1.86c-19.07,12.46-42.25,18.81-63.75,17.55c-7.01-0.41-11.38,2.67-13.25,7.71
			c-0.17,0.03-2.03,0.4-2.13,0.43v-11.56c0-24.97,16.69-47.44,40.58-54.64c3.98-1.2,6.24-5.4,5.04-9.38
			c-1.2-3.98-5.41-6.24-9.39-5.04c-14.53,4.38-27.59,13.49-36.78,25.65c-9.5,12.59-14.52,27.6-14.52,43.41v20.85
			c-3.79,4.53-5.85,10.04-5.85,15.88c0,12.89,9.5,24.14,23.03,25.82c2.22,13.42,9.5,26.29,20.99,35.04v12.83l-66.52,25.79
			c-0.05,0.02-0.09,0.04-0.14,0.06c-1.27,0.52-31.08,13.17-31.08,47.93v118.11c0,9.01,7.33,16.33,16.33,16.33h231.94
			c3.24,0,6.26-0.96,8.8-2.6c2.54,1.63,5.56,2.6,8.8,2.6h231.94c9.01,0,16.33-7.33,16.33-16.33v-50.32
			C512,427.06,508.63,423.69,504.47,423.69z M73.88,226.22c-4.42-1.6-7.24-5.69-7.24-10.26c0-4.43,3.21-8.07,7.24-9.8V226.22z
			 M422,308.83l-14.78,29.63c0,0-16.42-11.66-16.65-11.83c7.08-8.74,3.76-4.64,18.48-22.82L422,308.83z M379.68,316.14L360.2,292.1
			v-7.23c6.33,2.19,13.15,3.2,19.57,3.2c0,0,0,0,0,0h0c6.64,0,13.36-1.26,19.34-3.51v7.58L379.68,316.14z M388.52,343.66l-2.77,4.17
			h-12.14l-2.77-4.17l8.84-6.28L388.52,343.66z M254.91,225.34l-19.48-24.04v-7.23c6.31,2.18,13.12,3.2,19.57,3.2c0,0,0,0,0,0h0
			c6.63,0,13.34-1.26,19.34-3.51v7.58L254.91,225.34z M263.75,252.86l-2.77,4.17h-12.14l-2.77-4.17l8.84-6.28L263.75,252.86z
			 M195.6,150.26c1.23,0.34,2.5,0.56,3.78,0.72c2.22,13.42,9.5,26.29,20.99,35.04v12.83L205,204.81c-0.89-1.87-2-3.63-3.33-5.25
			v-20.32C201.68,169.02,199.52,159.2,195.6,150.26z M294.93,142.29c0,22.04-17.98,39.92-39.92,39.92
			c-24.75,0-41.3-19.18-41.3-39.92v-35.28c23.78,0.95,48.49-6.1,68.69-18.67c6.79,7.28,10.83,11.51,12.53,13.48
			C294.93,120.57,294.93,127.81,294.93,142.29z M309.3,150.98c1.28-0.16,2.54-0.39,3.76-0.72c-3.91,8.88-6.1,18.68-6.1,28.99v20.85
			c-1.16,1.38-2.15,2.86-2.98,4.4l-14.57-5.64v-13.72C299.81,176.77,307.11,164.72,309.3,150.98z M225.51,213.03L244,235.85
			l-12.61,8.96c-0.01,0.01-0.01,0.01-0.02,0.02l-4,2.84l-14.78-29.63L225.51,213.03z M272.24,227.88l12.04-14.86l12.95,5.02
			l-14.78,29.63l-4.01-2.85c0,0-0.01-0.01-0.01-0.01l-12.63-8.97L272.24,227.88z M276.04,261.59l0.81,0.57
			c2.82,2,6.35,2.66,9.69,1.83c3.34-0.84,6.15-3.09,7.69-6.17v0l12.71-25.48c4.37,5.38,10.68,8.66,17.19,9.47
			c2.3,14.4,10.08,26.69,21.02,35.02v12.83l-64.03,24.82l-8.16-48.23L276.04,261.59z M350.28,303.83l18.49,22.82
			c-8.08,5.74-16.21,11.52-16.63,11.81l-14.78-29.63L350.28,303.83z M419.7,233.09c0,21.51-17.46,39.92-39.92,39.92
			c-25.6,0-41.3-20.05-41.3-39.92v-35.28c23.61,0.94,48.35-6.01,68.69-18.67c6.79,7.28,10.83,11.51,12.53,13.48
			C419.7,211.37,419.7,218.61,419.7,233.09z M442,215.97c0,4.58-2.83,8.65-7.24,10.25v-20.49C439.32,207.39,442,211.56,442,215.97z
			 M322.02,179.24c0-31.46,25.6-57.06,57.06-57.06c31.46,0,57.06,25.6,57.06,57.06v11.26c-0.34-0.07-1.28-0.23-1.41-0.25
			c-0.1-2.13-0.64-3.43-1.8-5.09c-1.98-2.84-5.4-6.23-16.53-18.19c-3.88-4.17-10.29-5.11-15.26-1.86
			c-18.56,12.12-42,18.97-64.31,17.52c-6.27-0.41-10.81,2.66-12.69,7.74c-0.17,0.03-2.03,0.4-2.13,0.43L322.02,179.24L322.02,179.24
			z M323.41,206.17v20.05c-4.43-1.6-7.24-5.69-7.24-10.25C316.18,211.54,319.39,207.9,323.41,206.17z M317.23,125.17
			c0,3.17-1.37,6.17-3.77,8.23c-1.03,0.88-2.2,1.56-3.47,2.03v-20.49C314.5,116.57,317.23,120.71,317.23,125.17z M254.32,31.38
			c31.46,0,57.06,25.6,57.06,57.06V99.7c-0.34-0.07-1.28-0.23-1.41-0.25c-0.11-2.31-0.78-3.72-2.13-5.56
			c-2.02-2.73-5.73-6.48-16.19-17.72c-3.95-4.24-10.36-5.06-15.26-1.86c-19.6,12.8-43.37,19.03-64.92,17.49
			c-5.27-0.4-10.24,2.79-12.08,7.77c-0.17,0.03-2.03,0.4-2.13,0.43V88.44h0C197.25,56.98,222.85,31.38,254.32,31.38z M198.64,115.37
			v20.06c-4.42-1.6-7.24-5.69-7.24-10.26C191.41,120.76,194.6,117.11,198.64,115.37z M185.22,205.73c4.21,1.53,6.92,5.21,7.19,9.58
			c0.34,4.86-2.65,9.25-7.19,10.9V205.73z M184.53,241.8c7.1-0.89,13.62-4.63,17.9-10.39l13.17,26.4c0,0,0,0,0,0
			c1.54,3.09,4.34,5.34,7.69,6.17c3.31,0.83,6.84,0.19,9.69-1.83l0.81-0.57l3.1,4.66l-8.16,48.22l-64.07-24.81v-13.71h0
			C175.31,267.34,182.39,255.19,184.53,241.8z M130.14,316.14l-19.48-24.04v-7.23c6.31,2.18,13.12,3.2,19.57,3.2c0,0,0,0,0,0
			c6.73,0,13.44-1.29,19.34-3.51v7.58L130.14,316.14z M138.98,343.66l-2.77,4.17h-12.14l-2.77-4.17l8.84-6.28L138.98,343.66z
			 M159.51,303.82l12.95,5.02l-14.78,29.63l-4.01-2.85c0,0-0.01-0.01-0.01-0.01l-12.63-8.97L159.51,303.82z M88.94,233.09v-35.28
			c23.91,0.95,48.63-6.19,68.69-18.67c6.73,7.21,10.83,11.51,12.53,13.48c0,18.75,0,25.99,0,40.47c0,21.9-17.86,39.92-39.92,39.92
			C105.67,273.01,88.94,254.04,88.94,233.09z M100.74,303.83l18.49,22.82l-12.61,8.96c-0.01,0.01-0.01,0.01-0.02,0.02l-4,2.84
			l-14.78-29.63L100.74,303.83z M57.87,482.81V372.77c0-4.16-3.37-7.53-7.53-7.53s-7.53,3.37-7.53,7.53v110.04H14.19
			c-0.7,0-1.27-0.57-1.27-1.27V363.43c0-24.19,20.38-33.41,21.7-33.98l39.08-15.15l17.12,34.31c0,0,0,0,0,0
			c1.54,3.09,4.34,5.34,7.69,6.17c3.31,0.83,6.84,0.19,9.69-1.83l0.81-0.57l3.1,4.66l-16.83,99.41c-0.01,0.07-0.02,0.15-0.04,0.22
			c-0.48,3.51,0.61,7.12,2.92,9.67l14.97,16.46L57.87,482.81L57.87,482.81z M110.4,457.41l16-94.51h7.49l16,94.51l-19.74,21.72
			L110.4,457.41z M247.4,481.54c0,0.7-0.57,1.27-1.27,1.27h-28.62V372.77c0-4.16-3.37-7.53-7.53-7.53s-7.53,3.37-7.53,7.53v110.04
			h-55.3l14.97-16.47c2.31-2.54,3.4-6.16,2.92-9.66c-0.01-0.08-0.02-0.15-0.04-0.22l-16.83-99.41l3.1-4.66l0.81,0.57
			c2.02,1.43,4.4,2.18,6.82,2.18c4.42,0,8.53-2.48,10.55-6.53v0l17.12-34.31l39.11,15.15c11.4,4.96,21.72,17.75,21.72,33.99
			L247.4,481.54L247.4,481.54z M254.93,336.06c-3.12-5.03-7.27-9.68-12.28-13.65l8.52-50.32h7.49l8.52,50.34
			C262.03,326.52,257.94,331.22,254.93,336.06z M307.41,482.81L307.41,482.81V372.77c0-4.16-3.37-7.53-7.53-7.53
			c-4.16,0-7.53,3.37-7.53,7.53v110.04h-28.62c-0.7,0-1.27-0.57-1.27-1.27V363.43c0-8.95,2.81-17.2,8.79-24.13
			c3.99-4.57,9.28-8.28,12.91-9.85l39.08-15.15l17.12,34.31c0,0,0,0,0,0c1.54,3.09,4.34,5.34,7.69,6.17
			c3.31,0.83,6.84,0.19,9.69-1.83l0.81-0.57l3.1,4.66l-16.83,99.41c-0.01,0.07-0.02,0.15-0.04,0.22c-0.48,3.51,0.61,7.12,2.92,9.67
			l14.97,16.46L307.41,482.81L307.41,482.81z M359.94,457.41l16-94.51h7.49l16,94.51l-19.74,21.72L359.94,457.41z"/>
	</g>
</g>
</svg>
