<?xml version="1.0" encoding="utf-8"?>
<!-- Generator: Adobe Illustrator 24.3.0, SVG Export Plug-In . SVG Version: 6.00 Build 0)  -->
<svg version="1.1" id="mesa" xmlns="http://www.w3.org/2000/svg" xmlns:xlink="http://www.w3.org/1999/xlink" x="0px" y="0px"
	 viewBox="0 0 512 512" style="enable-background:new 0 0 512 512;" xml:space="preserve">
<style type="text/css">
	.st0{fill:#4FACB9;}
</style>
<g>
	<g>
		<g>
			<path class="st0" d="M173.35,417.69c-1.54,0-3.07-0.6-4.23-1.79c-2.28-2.35-2.24-6.08,0.11-8.37l43.1-42.08
				c2.34-2.28,6.1-2.23,8.38,0.11c2.28,2.34,2.23,6.09-0.1,8.36L177.49,416C176.35,417.12,174.85,417.69,173.35,417.69z"/>
		</g>
		<g>
			<path class="st0" d="M155.32,418.08c-1.39,0-2.8-0.5-3.93-1.5l-33.74-30.01c-2.44-2.18-2.66-5.92-0.48-8.36
				c2.18-2.45,5.91-2.66,8.36-0.49l33.74,30.01c2.44,2.18,2.66,5.91,0.49,8.36C158.58,417.4,156.95,418.08,155.32,418.08z"/>
		</g>
		<g>
			<path class="st0" d="M68.12,433.18c-1.34,0-2.67-0.45-3.78-1.37c-2.51-2.09-2.86-5.82-0.77-8.33l36.4-43.85
				c2.09-2.53,5.83-2.86,8.34-0.78c2.51,2.09,2.86,5.82,0.77,8.33l-36.4,43.85C71.51,432.45,69.81,433.18,68.12,433.18z"/>
		</g>
		<g>
			<path class="st0" d="M60.25,455c-10.08,0-18.27-8.2-18.27-18.27c0-10.04,8.2-18.22,18.27-18.22c10.05,0,18.22,8.17,18.22,18.22
				C78.47,446.8,70.3,455,60.25,455z M60.25,430.36c-3.54,0-6.43,2.86-6.43,6.37c0,3.55,2.89,6.43,6.43,6.43
				c3.52,0,6.38-2.88,6.38-6.43C66.63,433.22,63.77,430.36,60.25,430.36z"/>
		</g>
		<g>
			<path class="st0" d="M112.39,392.16c-10.05,0-18.22-8.17-18.22-18.21c0-10.08,8.17-18.27,18.22-18.27
				c10.06,0,18.25,8.2,18.25,18.27C130.64,383.99,122.45,392.16,112.39,392.16z M112.39,367.52c-3.51,0-6.38,2.88-6.38,6.43
				c0,3.51,2.87,6.37,6.38,6.37c3.54,0,6.41-2.86,6.41-6.37C118.8,370.4,115.93,367.52,112.39,367.52z"/>
		</g>
		<g>
			<path class="st0" d="M164.55,438.56c-10.07,0-18.26-8.17-18.26-18.21c0-10.05,8.19-18.22,18.26-18.22
				c10.06,0,18.25,8.17,18.25,18.22C182.8,430.39,174.61,438.56,164.55,438.56z M164.55,413.98c-3.53,0-6.41,2.85-6.41,6.37
				c0,3.51,2.88,6.37,6.41,6.37c3.54,0,6.41-2.86,6.41-6.37C170.96,416.83,168.09,413.98,164.55,413.98z"/>
		</g>
		<g>
			<path class="st0" d="M225.27,379.32c-10.07,0-18.24-8.17-18.24-18.21c0-10.08,8.17-18.27,18.24-18.27
				c10.06,0,18.25,8.2,18.25,18.27C243.52,371.15,235.33,379.32,225.27,379.32z M225.27,354.67c-3.53,0-6.41,2.88-6.41,6.43
				c0,3.51,2.88,6.37,6.41,6.37c3.54,0,6.41-2.86,6.41-6.37C231.68,357.55,228.81,354.67,225.27,354.67z"/>
		</g>
	</g>
	<path class="st0" d="M379.37,194.26c-71.24,0-129.19,57.95-129.19,129.19s57.95,129.18,129.19,129.18
		c71.23,0,129.18-57.95,129.18-129.18S450.6,194.26,379.37,194.26z M492.66,313.18h-25.79c-4.72-40.41-36.83-72.52-77.24-77.24
		v-25.79C444.19,215.06,487.75,258.62,492.66,313.18z M379.37,396.2c-40.12,0-72.75-32.64-72.75-72.75s32.64-72.75,72.75-72.75
		s72.75,32.64,72.75,72.75S419.48,396.2,379.37,396.2z M265.58,323.45c0-59.28,45.57-108.09,103.52-113.3v25.79
		c-43.78,5.11-77.89,42.38-77.89,87.51c0,48.61,39.55,88.16,88.16,88.16c18.8,0,36.2-5.96,50.53-16.03l18.35,18.35
		c-19.14,14.6-43.01,23.3-68.88,23.3C316.63,437.23,265.58,386.19,265.58,323.45z M463.42,400.05l-18.2-18.2
		c11.68-13.15,19.51-29.77,21.65-48.14h25.79C490.37,359.15,479.71,382.19,463.42,400.05z"/>
	<path class="st0" d="M355.42,512H39.14c-18.58,0-33.69-15.11-33.69-33.69V33.69c0-9.04,3.53-17.52,9.94-23.89
		C21.75,3.48,30.17,0,39.14,0c0.07,0,0.13,0,0.19,0l212.05,1.2l137.74,137.74v63.02h-20.54v-54.51L242.82,21.69L39.21,20.54
		c-3.56,0.15-6.85,1.34-9.35,3.83c-2.5,2.49-3.88,5.8-3.88,9.33v444.62c0,7.25,5.9,13.15,13.16,13.15h316.28
		c7.25,0,13.15-5.9,13.15-13.15v-33.38h20.54v33.38C389.11,496.89,374,512,355.42,512z"/>
	<rect x="58.98" y="86.33" class="st0" width="143.33" height="15.4"/>
	<rect x="58.98" y="129.16" class="st0" width="143.33" height="15.4"/>
	<rect x="58.98" y="171.98" class="st0" width="190.62" height="15.4"/>
	<rect x="58.98" y="214.8" class="st0" width="143.33" height="15.4"/>
	<path class="st0" d="M378.85,150.9H247.1c-4.25,0-7.7-3.45-7.7-7.7V11.45c0-3.12,1.88-5.92,4.75-7.12s6.19-0.53,8.39,1.67
		l131.75,131.75c2.2,2.2,2.86,5.52,1.67,8.39S381.96,150.9,378.85,150.9z M254.8,135.49h105.45L254.8,30.04V135.49z"/>
</g>
</svg>
