<?xml version="1.0" encoding="utf-8"?>
<!-- Generator: Adobe Illustrator 24.3.0, SVG Export Plug-In . SVG Version: 6.00 Build 0)  -->
<svg version="1.1" id="mesa" xmlns="http://www.w3.org/2000/svg" xmlns:xlink="http://www.w3.org/1999/xlink" x="0px" y="0px"
	 viewBox="0 0 512 512" style="enable-background:new 0 0 512 512;" xml:space="preserve">
<style type="text/css">
	.st0{fill:#4FACB9;}
</style>
<g>
	<g>
		<g>
			<g>
				<path class="st0" d="M249.77,165.99h-6.58c-0.57,0-1.05-0.42-1.13-0.98l-1.78-11.85c-1.87-0.33-3.72-0.82-5.51-1.47l-7.47,9.37
					c-0.35,0.44-0.98,0.56-1.47,0.28l-5.7-3.28c-0.49-0.28-0.7-0.89-0.49-1.41l4.39-11.16c-1.45-1.23-2.8-2.58-4.02-4.03
					l-11.17,4.38c-0.53,0.21-1.13,0-1.41-0.49l-3.29-5.69c-0.28-0.49-0.17-1.12,0.28-1.47l9.38-7.46c-0.64-1.77-1.13-3.61-1.48-5.51
					l-11.86-1.78c-0.56-0.08-0.98-0.57-0.98-1.13v-6.59c0-0.57,0.42-1.05,0.98-1.13l11.86-1.77c0.34-1.89,0.84-3.73,1.48-5.51
					l-9.38-7.47c-0.44-0.36-0.56-0.98-0.28-1.47l3.29-5.69c0.28-0.49,0.89-0.7,1.41-0.49L220,96.55c1.23-1.46,2.58-2.81,4.03-4.03
					l-4.39-11.17c-0.21-0.53,0-1.13,0.49-1.41l5.7-3.29c0.49-0.29,1.12-0.17,1.47,0.28l7.47,9.38c1.78-0.64,3.62-1.14,5.51-1.48
					l1.78-11.86c0.08-0.56,0.57-0.98,1.13-0.98h6.58c0.57,0,1.05,0.42,1.13,0.98l1.78,11.86c1.88,0.34,3.73,0.84,5.51,1.48
					l7.46-9.38c0.35-0.45,0.98-0.57,1.47-0.28l5.69,3.29c0.49,0.28,0.7,0.88,0.49,1.41l-4.38,11.17c1.47,1.24,2.82,2.59,4.03,4.03
					l11.16-4.39c0.53-0.21,1.13,0,1.42,0.49l3.28,5.69c0.28,0.49,0.16,1.12-0.28,1.47l-9.37,7.48c0.65,1.82,1.14,3.66,1.48,5.5
					l11.84,1.79c0.56,0.08,0.98,0.57,0.98,1.13v6.58c0,0.57-0.42,1.05-0.98,1.13l-11.84,1.78c-0.34,1.85-0.83,3.69-1.48,5.51
					l9.37,7.46c0.44,0.35,0.56,0.98,0.28,1.47l-3.28,5.69c-0.28,0.49-0.89,0.7-1.41,0.5l-11.16-4.38c-1.2,1.42-2.55,2.77-4.03,4.02
					l4.38,11.17c0.21,0.53,0,1.13-0.5,1.41l-5.69,3.28c-0.49,0.28-1.11,0.16-1.47-0.28l-7.46-9.37c-1.79,0.64-3.64,1.13-5.51,1.47
					l-1.78,11.85C250.82,165.58,250.34,165.99,249.77,165.99z M244.18,163.7h4.6l1.76-11.7c0.07-0.5,0.47-0.89,0.96-0.96
					c2.27-0.34,4.51-0.94,6.65-1.77c0.47-0.18,1-0.04,1.31,0.36l7.36,9.24l3.98-2.29l-4.32-11.02c-0.18-0.47-0.04-0.99,0.34-1.31
					c1.84-1.49,3.48-3.13,4.88-4.87c0.31-0.39,0.85-0.53,1.31-0.35l11.02,4.32l2.29-3.98l-9.24-7.36c-0.39-0.31-0.53-0.84-0.36-1.31
					c0.84-2.19,1.44-4.43,1.79-6.67c0.08-0.49,0.47-0.88,0.96-0.96l11.68-1.76v-4.6l-11.68-1.76c-0.5-0.07-0.89-0.46-0.96-0.96
					c-0.35-2.22-0.95-4.46-1.79-6.66c-0.18-0.47-0.03-0.99,0.36-1.3l9.25-7.38l-2.29-3.98l-11.02,4.33c-0.47,0.19-1,0.04-1.32-0.35
					c-1.41-1.77-3.05-3.41-4.87-4.86c-0.39-0.31-0.53-0.85-0.35-1.31l4.32-11.03l-3.98-2.3l-7.36,9.26
					c-0.31,0.39-0.85,0.54-1.31,0.35c-2.13-0.83-4.37-1.43-6.66-1.79c-0.49-0.08-0.88-0.47-0.96-0.96l-1.76-11.7h-4.6l-1.76,11.7
					c-0.07,0.49-0.46,0.89-0.96,0.96c-2.29,0.36-4.53,0.96-6.66,1.79c-0.46,0.19-1,0.04-1.31-0.35l-7.37-9.26l-3.99,2.3l4.33,11.02
					c0.18,0.47,0.04,1-0.35,1.32c-1.78,1.42-3.42,3.05-4.86,4.86c-0.31,0.39-0.84,0.54-1.32,0.35l-11.02-4.34l-2.3,3.98l9.26,7.38
					c0.39,0.31,0.54,0.85,0.35,1.31c-0.82,2.12-1.43,4.36-1.79,6.66c-0.08,0.49-0.47,0.88-0.96,0.95l-11.7,1.75v4.62l11.7,1.76
					c0.49,0.07,0.88,0.46,0.96,0.96c0.37,2.31,0.97,4.55,1.79,6.66c0.18,0.47,0.04,1-0.36,1.31l-9.26,7.36l2.3,3.99l11.02-4.32
					c0.47-0.18,1-0.04,1.31,0.35c1.43,1.78,3.07,3.42,4.87,4.87c0.39,0.31,0.53,0.85,0.35,1.31l-4.33,11.02l3.98,2.29l7.38-9.25
					c0.31-0.39,0.84-0.53,1.31-0.36c2.14,0.83,4.38,1.43,6.65,1.77c0.5,0.08,0.89,0.47,0.96,0.96L244.18,163.7z M246.48,136.98
					c-9.91,0-17.97-8.07-17.97-17.99c0-9.91,8.06-17.98,17.97-17.98c9.92,0,17.98,8.06,17.98,17.98
					C264.46,128.91,256.39,136.98,246.48,136.98z M246.48,103.32c-8.64,0-15.68,7.03-15.68,15.68c0,8.65,7.03,15.69,15.68,15.69
					c8.65,0,15.69-7.04,15.69-15.69C262.17,110.35,255.13,103.32,246.48,103.32z"/>
			</g>
		</g>
		<g>
			<path class="st0" d="M246.48,96.47c-1.58,0-2.87-1.29-2.87-2.87c0-1.58,1.29-2.87,2.87-2.87c1.58,0,2.87,1.29,2.87,2.87
				C249.35,95.18,248.06,96.47,246.48,96.47z M246.48,93.03c-0.31,0-0.57,0.27-0.57,0.57c0,0.31,0.26,0.57,0.57,0.57
				c0.32,0,0.57-0.25,0.57-0.57C247.05,93.29,246.79,93.03,246.48,93.03z"/>
		</g>
		<g>
			<path class="st0" d="M259.17,99.87c-0.5,0-1-0.13-1.43-0.38c-0.67-0.38-1.14-1.01-1.33-1.75c-0.19-0.74-0.09-1.51,0.29-2.18
				c0.76-1.31,2.58-1.8,3.91-1.03c0.65,0.36,1.13,0.98,1.34,1.72c0.2,0.74,0.1,1.52-0.29,2.19
				C261.15,99.32,260.19,99.87,259.17,99.87z M259.17,96.44c-0.2,0-0.38,0.1-0.48,0.28c-0.08,0.14-0.1,0.29-0.06,0.44
				c0.02,0.09,0.09,0.24,0.26,0.35c0.27,0.16,0.63,0.05,0.79-0.22c0.1-0.18,0.08-0.34,0.06-0.43c-0.02-0.08-0.09-0.24-0.26-0.33
				C259.37,96.46,259.27,96.44,259.17,96.44z"/>
		</g>
		<g>
			<path class="st0" d="M268.47,109.17c-1.03,0-1.98-0.56-2.49-1.45c-0.38-0.65-0.48-1.43-0.28-2.17c0.2-0.74,0.67-1.35,1.33-1.73
				c1.32-0.76,3.16-0.27,3.92,1.05c0.38,0.65,0.48,1.42,0.29,2.16c-0.2,0.74-0.68,1.37-1.34,1.76
				C269.47,109.04,268.97,109.17,268.47,109.17z M268.48,105.73c-0.1,0-0.2,0.03-0.29,0.08c-0.17,0.1-0.23,0.25-0.26,0.34
				c-0.02,0.09-0.05,0.26,0.06,0.44c0.2,0.36,0.54,0.35,0.77,0.22c0.14-0.08,0.24-0.21,0.28-0.36c0.02-0.08,0.04-0.25-0.06-0.43
				C268.87,105.83,268.69,105.73,268.48,105.73z"/>
		</g>
		<g>
			<path class="st0" d="M271.87,121.86c-1.58,0-2.87-1.29-2.87-2.87c0-1.58,1.29-2.87,2.87-2.87c1.58,0,2.87,1.29,2.87,2.87
				C274.74,120.58,273.45,121.86,271.87,121.86z M271.87,118.42c-0.32,0-0.57,0.25-0.57,0.57c0,0.32,0.26,0.57,0.57,0.57
				c0.32,0,0.57-0.25,0.57-0.57C272.45,118.67,272.19,118.42,271.87,118.42z"/>
		</g>
		<g>
			<path class="st0" d="M268.47,134.57c-0.5,0-1-0.13-1.43-0.39c-1.36-0.79-1.83-2.55-1.04-3.92c0.73-1.31,2.57-1.82,3.91-1.04
				c0.65,0.37,1.14,0.98,1.34,1.73c0.2,0.74,0.1,1.52-0.29,2.18C270.45,134.01,269.49,134.57,268.47,134.57z M268.46,131.13
				c-0.2,0-0.38,0.1-0.47,0.27c-0.16,0.28-0.07,0.64,0.2,0.8c0.27,0.15,0.63,0.05,0.78-0.22c0.1-0.18,0.08-0.35,0.06-0.43
				c-0.02-0.08-0.09-0.24-0.26-0.33C268.66,131.15,268.56,131.13,268.46,131.13z"/>
		</g>
		<g>
			<path class="st0" d="M259.18,143.86c-1.02,0-1.97-0.55-2.48-1.44c-0.79-1.36-0.33-3.11,1.03-3.91c1.34-0.78,3.17-0.28,3.93,1.04
				c0.38,0.66,0.49,1.43,0.29,2.17c-0.2,0.74-0.68,1.37-1.34,1.76C260.18,143.73,259.68,143.86,259.18,143.86z M259.18,140.42
				c-0.1,0-0.2,0.03-0.29,0.08c-0.27,0.16-0.36,0.5-0.2,0.77c0.16,0.27,0.51,0.38,0.77,0.22c0.14-0.08,0.24-0.21,0.28-0.36
				c0.02-0.08,0.04-0.25-0.06-0.43C259.57,140.52,259.39,140.42,259.18,140.42z"/>
		</g>
		<g>
			<path class="st0" d="M246.48,147.26c-1.58,0-2.87-1.29-2.87-2.87c0-1.58,1.29-2.87,2.87-2.87c1.58,0,2.87,1.29,2.87,2.87
				C249.35,145.97,248.06,147.26,246.48,147.26z M246.48,143.82c-0.31,0-0.57,0.27-0.57,0.57c0,0.31,0.26,0.57,0.57,0.57
				c0.32,0,0.57-0.25,0.57-0.57C247.05,144.08,246.79,143.82,246.48,143.82z"/>
		</g>
		<g>
			<path class="st0" d="M233.77,143.86c-0.5,0-1-0.13-1.43-0.38c-0.66-0.38-1.13-1-1.33-1.74c-0.2-0.74-0.09-1.52,0.29-2.19
				c0.76-1.32,2.59-1.81,3.91-1.03c0.67,0.38,1.14,1.01,1.34,1.75c0.19,0.73,0.09,1.5-0.29,2.16
				C235.76,143.31,234.8,143.86,233.77,143.86z M233.78,140.42c-0.2,0-0.38,0.11-0.49,0.28c-0.08,0.14-0.1,0.3-0.06,0.44
				c0.02,0.09,0.09,0.24,0.26,0.34c0.27,0.16,0.63,0.05,0.79-0.22c0.1-0.17,0.08-0.32,0.06-0.42c-0.04-0.15-0.14-0.28-0.28-0.36
				C233.97,140.45,233.87,140.42,233.78,140.42z"/>
		</g>
		<g>
			<path class="st0" d="M224.49,134.57c-1.02,0-1.97-0.55-2.48-1.44c-0.39-0.67-0.49-1.45-0.29-2.19c0.2-0.74,0.68-1.35,1.34-1.72
				c1.28-0.74,3.15-0.27,3.91,1.05c0.79,1.37,0.32,3.13-1.05,3.92C225.49,134.43,224.99,134.57,224.49,134.57z M224.49,131.13
				c-0.1,0-0.2,0.03-0.29,0.08c-0.18,0.1-0.24,0.25-0.27,0.33c-0.02,0.09-0.05,0.26,0.06,0.44c0.16,0.28,0.5,0.38,0.78,0.22
				c0.28-0.16,0.37-0.52,0.21-0.79C224.88,131.23,224.7,131.13,224.49,131.13z"/>
		</g>
		<g>
			<path class="st0" d="M221.08,121.86c-1.58,0-2.87-1.29-2.87-2.87c0-1.58,1.29-2.87,2.87-2.87c1.58,0,2.87,1.29,2.87,2.87
				C223.95,120.58,222.66,121.86,221.08,121.86z M221.08,118.42c-0.31,0-0.57,0.26-0.57,0.57c0,0.31,0.26,0.57,0.57,0.57
				c0.32,0,0.57-0.25,0.57-0.57C221.65,118.67,221.4,118.42,221.08,118.42z"/>
		</g>
		<g>
			<path class="st0" d="M224.48,109.17c-0.5,0-1-0.13-1.43-0.39c-0.66-0.38-1.13-1-1.33-1.74c-0.2-0.74-0.09-1.52,0.29-2.18
				c0.76-1.32,2.59-1.8,3.91-1.04c0.66,0.37,1.13,0.99,1.33,1.73c0.2,0.74,0.1,1.52-0.28,2.18
				C226.46,108.62,225.51,109.17,224.48,109.17z M224.48,105.73c-0.2,0-0.38,0.11-0.49,0.29c-0.08,0.13-0.1,0.29-0.06,0.44
				c0.02,0.08,0.09,0.24,0.27,0.35c0.28,0.16,0.63,0.05,0.78-0.22c0.1-0.18,0.08-0.35,0.06-0.43c-0.02-0.08-0.09-0.24-0.26-0.34
				C224.68,105.76,224.58,105.73,224.48,105.73z"/>
		</g>
		<g>
			<path class="st0" d="M233.79,99.87c-1.02,0-1.97-0.55-2.48-1.44c-0.39-0.67-0.49-1.45-0.29-2.2c0.2-0.74,0.68-1.35,1.34-1.72
				c1.28-0.74,3.15-0.27,3.91,1.04c0.38,0.66,0.49,1.43,0.29,2.18c-0.2,0.74-0.68,1.37-1.35,1.75
				C234.78,99.74,234.29,99.87,233.79,99.87z M233.79,96.44c-0.11,0-0.2,0.03-0.29,0.08c-0.18,0.1-0.24,0.25-0.26,0.33
				c-0.02,0.09-0.05,0.26,0.06,0.44c0.16,0.28,0.51,0.38,0.77,0.22c0.14-0.08,0.24-0.21,0.28-0.36c0.02-0.09,0.05-0.26-0.06-0.43
				C234.18,96.54,234,96.44,233.79,96.44z"/>
		</g>
		<g>
			<g>
				<path class="st0" d="M299.86,88.58h-4.31c-0.57,0-1.05-0.42-1.13-0.98l-1.12-7.47c-1.05-0.21-2.09-0.48-3.11-0.83l-4.69,5.91
					c-0.35,0.44-0.98,0.56-1.47,0.28l-3.73-2.15c-0.49-0.28-0.7-0.89-0.49-1.42l2.76-7.02c-0.79-0.69-1.55-1.45-2.27-2.28
					l-7.04,2.76c-0.52,0.21-1.13,0-1.41-0.5l-2.14-3.73c-0.28-0.49-0.16-1.12,0.28-1.47l5.9-4.7c-0.35-1-0.63-2.05-0.83-3.12
					l-7.45-1.12c-0.56-0.08-0.98-0.57-0.98-1.13v-4.29c0-0.57,0.42-1.05,0.98-1.13l7.45-1.12c0.21-1.08,0.49-2.12,0.83-3.12
					l-5.89-4.7c-0.44-0.35-0.56-0.98-0.28-1.47l2.14-3.72c0.28-0.49,0.89-0.7,1.41-0.5l7.04,2.76c0.71-0.82,1.48-1.59,2.27-2.29
					l-2.76-7.02c-0.21-0.53,0-1.13,0.49-1.41l3.73-2.15c0.49-0.28,1.12-0.16,1.47,0.28l4.69,5.9c1.01-0.35,2.05-0.62,3.11-0.83
					l1.12-7.47c0.08-0.56,0.57-0.98,1.13-0.98h4.31c0.57,0,1.05,0.42,1.13,0.98l1.12,7.47c1.06,0.21,2.1,0.48,3.11,0.83l4.71-5.91
					c0.35-0.44,0.98-0.56,1.47-0.28l3.71,2.15c0.49,0.28,0.7,0.88,0.49,1.41l-2.76,7.02c0.8,0.7,1.56,1.46,2.27,2.29l7.03-2.76
					c0.52-0.21,1.13,0,1.41,0.49l2.15,3.72c0.28,0.49,0.17,1.12-0.28,1.47l-5.9,4.7c0.35,1,0.63,2.04,0.84,3.12l7.45,1.12
					c0.56,0.08,0.98,0.57,0.98,1.13v4.29c0,0.57-0.42,1.05-0.98,1.13l-7.45,1.12c-0.21,1.08-0.49,2.12-0.84,3.12l5.9,4.7
					c0.44,0.36,0.56,0.98,0.28,1.47l-2.15,3.71c-0.28,0.49-0.88,0.7-1.41,0.49l-7.03-2.75c-0.72,0.82-1.48,1.58-2.27,2.28l2.76,7.02
					c0.21,0.53,0,1.13-0.49,1.41l-3.71,2.15c-0.49,0.28-1.12,0.17-1.47-0.28l-4.71-5.91c-1.02,0.35-2.06,0.63-3.11,0.83l-1.12,7.47
					C300.91,88.16,300.43,88.58,299.86,88.58z M296.54,86.28h2.34l1.09-7.3c0.07-0.49,0.46-0.88,0.95-0.96
					c1.45-0.23,2.89-0.61,4.28-1.14c0.47-0.18,0.99-0.03,1.3,0.36l4.61,5.78l2-1.16l-2.7-6.87c-0.18-0.47-0.04-1,0.34-1.31
					c1.11-0.9,2.16-1.96,3.13-3.13c0.32-0.38,0.84-0.53,1.31-0.34l6.87,2.69l1.16-2.01l-5.77-4.6c-0.39-0.32-0.54-0.85-0.35-1.32
					c0.52-1.33,0.91-2.77,1.15-4.27c0.08-0.49,0.47-0.88,0.96-0.95l7.29-1.1v-2.32l-7.29-1.1c-0.49-0.07-0.88-0.46-0.96-0.96
					c-0.24-1.51-0.63-2.94-1.15-4.27c-0.19-0.47-0.04-1,0.35-1.32l5.77-4.6l-1.16-2.01l-6.88,2.7c-0.46,0.18-0.99,0.04-1.31-0.34
					c-0.95-1.18-2-2.23-3.12-3.14c-0.39-0.32-0.53-0.85-0.34-1.31l2.7-6.87l-2-1.16l-4.61,5.77c-0.31,0.39-0.84,0.53-1.3,0.36
					c-1.38-0.53-2.81-0.91-4.28-1.14c-0.49-0.08-0.88-0.47-0.95-0.96l-1.09-7.3h-2.34l-1.1,7.3c-0.07,0.49-0.46,0.88-0.95,0.96
					c-1.47,0.23-2.91,0.62-4.28,1.14c-0.47,0.17-1,0.03-1.31-0.36l-4.59-5.77l-2.02,1.17l2.7,6.87c0.18,0.47,0.04,1-0.34,1.31
					c-1.12,0.91-2.17,1.96-3.12,3.14c-0.32,0.39-0.85,0.52-1.31,0.35l-6.89-2.7l-1.15,2l5.77,4.6c0.39,0.31,0.54,0.85,0.35,1.32
					c-0.52,1.33-0.91,2.77-1.15,4.27c-0.08,0.49-0.47,0.88-0.96,0.96l-7.29,1.1v2.32l7.29,1.1c0.49,0.07,0.88,0.46,0.96,0.95
					c0.24,1.5,0.62,2.93,1.15,4.27c0.18,0.47,0.04,1-0.35,1.31l-5.77,4.6l1.16,2.02l6.88-2.7c0.46-0.18,0.99-0.04,1.31,0.34
					c0.96,1.18,2.01,2.23,3.13,3.13c0.39,0.32,0.53,0.85,0.34,1.31l-2.7,6.87l2.02,1.17l4.59-5.78c0.31-0.39,0.85-0.53,1.31-0.36
					c1.38,0.53,2.83,0.91,4.28,1.14c0.49,0.08,0.88,0.47,0.95,0.96L296.54,86.28z M297.7,69.61c-6.7,0-12.14-5.44-12.14-12.14
					c0-6.7,5.45-12.15,12.14-12.15c6.7,0,12.15,5.45,12.15,12.15C309.85,64.17,304.4,69.61,297.7,69.61z M297.7,47.62
					c-5.43,0-9.85,4.42-9.85,9.85c0,5.43,4.42,9.84,9.85,9.84c5.43,0,9.85-4.41,9.85-9.84C307.55,52.04,303.14,47.62,297.7,47.62z"
					/>
			</g>
		</g>
	</g>
</g>
<g>
	<path class="st0" d="M138.14,197.69h252.37c4.09,0,7.41-3.32,7.41-7.41s-3.32-7.41-7.41-7.41H138.14c-4.09,0-7.41,3.32-7.41,7.41
		S134.05,197.69,138.14,197.69z"/>
	<path class="st0" d="M138.14,296.96h252.37c4.09,0,7.41-3.32,7.41-7.41s-3.32-7.41-7.41-7.41H138.14c-4.09,0-7.41,3.32-7.41,7.41
		S134.05,296.96,138.14,296.96z"/>
	<path class="st0" d="M390.51,230.79h-95.16c-4.09,0-7.41,3.32-7.41,7.41s3.32,7.41,7.41,7.41h95.16c4.09,0,7.41-3.32,7.41-7.41
		S394.6,230.79,390.51,230.79z"/>
	<path class="st0" d="M138.14,245.62h112.3c4.09,0,7.41-3.32,7.41-7.41s-3.32-7.41-7.41-7.41h-112.3c-4.09,0-7.41,3.32-7.41,7.41
		S134.05,245.62,138.14,245.62z"/>
	<path class="st0" d="M477.35,237.4c-0.08-0.23-0.2-0.43-0.31-0.66c-0.3-0.62-0.67-1.18-1.13-1.7c-0.1-0.12-0.14-0.26-0.25-0.37
		l-30.65-30.65c-0.12-0.12-0.28-0.16-0.4-0.27V0H138.14h-54.1v205.32c-0.04,0.04-0.09,0.05-0.13,0.08l-27.56,27.57
		c-0.11,0.11-0.15,0.26-0.25,0.38c-0.45,0.51-0.83,1.07-1.12,1.69c-0.11,0.22-0.23,0.43-0.31,0.65c-0.29,0.8-0.49,1.64-0.49,2.52
		v266.38c0,0.84,0.17,1.64,0.43,2.4c0.03,0.09,0.05,0.18,0.08,0.27c0.33,0.86,0.82,1.63,1.43,2.3c0.03,0.03,0.04,0.08,0.07,0.11
		c0.02,0.03,0.05,0.04,0.08,0.07c0.24,0.25,0.51,0.47,0.79,0.68c0.12,0.09,0.23,0.21,0.35,0.29c0.37,0.25,0.76,0.46,1.17,0.64
		c0.04,0.02,0.08,0.05,0.12,0.07c0.45,0.19,0.92,0.34,1.41,0.43c0.49,0.1,0.98,0.15,1.48,0.15h408.84c4.09,0,7.41-3.32,7.41-7.41
		V239.91C477.84,239.03,477.64,238.2,477.35,237.4z M69,255.58l15.95,15.28c0.74,1.37,1.89,2.48,3.3,3.16l102.76,98.45L69,487.42
		V255.58z M204.72,379.92h121.13l123.86,117.25H80.26L204.72,379.92z M339.62,372.54l123.39-115.53v232.34L339.62,372.54z
		 M459.77,239.74l-15.15,14.19v-29.34L459.77,239.74z M138.14,14.83h291.65v252.53c0,0.14,0.03,0.27,0.04,0.41l-69.81,65.36
		c-0.64-0.18-1.31-0.31-2-0.31H233.41c-4.09,0-7.41,3.32-7.41,7.41s3.32,7.41,7.41,7.41h111.11l-18.64,17.45H204.75l-18.22-17.45
		h28.89c4.09,0,7.41-3.32,7.41-7.41s-3.32-7.41-7.41-7.41h-43.53c-0.26,0-0.5,0.05-0.75,0.08l-72.28-69.24V14.83H138.14z
		 M84.03,226.24v23.2l-11.85-11.35L84.03,226.24z"/>
</g>
</svg>
