<?xml version="1.0" encoding="utf-8"?>
<!-- Generator: Adobe Illustrator 24.3.0, SVG Export Plug-In . SVG Version: 6.00 Build 0)  -->
<svg version="1.1" id="Capa_1" xmlns="http://www.w3.org/2000/svg" xmlns:xlink="http://www.w3.org/1999/xlink" x="0px" y="0px"
	 viewBox="0 0 498.77 132.09" style="enable-background:new 0 0 498.77 132.09;" xml:space="preserve">
<style type="text/css">
	.st0{fill:#4FADBA;}
	.st1{fill:#054764;}
	.st2{fill:#FFFFFF;}
</style>
<g>
	<path class="st2" d="M169.9,90.84c-7.64,1.41-16.23-0.95-20.88-8.26l61.52-12.68c-0.02-3.3-0.35-6.54-1.07-10.03
		c-6.02-29.17-30.9-39.25-52.97-34.87c-10.14,2.02-19.63,7.09-26.45,14.74c6.36,10.58,9.47,22.8,8.13,35.37
		c-0.92,8.54-3.81,16.38-8.2,23.23c10.61,13.38,27.61,17.81,43.23,14.95c18.14-3.41,34.29-16.49,37.02-36.89L183.12,82
		C180.29,86.71,175.45,89.69,169.9,90.84 M160.18,46.89c8.09-1.67,15.88,0.86,20.02,8.93l-34.24,7.06
		C146.76,53.95,152.73,48.42,160.18,46.89"/>
	<path class="st2" d="M96.88,18.05l-24.3,35.94L48.28,18.05H30.31v78.44c2.79,0.69,5.34,2.36,7.08,4.92c1.35,2,2.01,4.26,2.05,6.51
		h14.84V65.88l12.16,18.2h12.01l11.88-17.95v41.78h24.26V18.05H96.88z"/>
	<path class="st2" d="M34.83,103.09c2.78,4.12,1.7,9.72-2.42,12.5c-4.12,2.78-9.72,1.7-12.5-2.42c-2.79-4.12-1.7-9.72,2.42-12.5
		C26.45,97.89,32.04,98.97,34.83,103.09"/>
	<polygon class="st2" points="216.43,108.05 216.43,30.02 231.05,30.02 258.37,66.34 258.37,30.02 276.55,30.02 276.55,108.05 
		261.71,108.05 234.57,71.95 234.57,108.05 	"/>
	<polygon class="st2" points="303.58,108.12 303.58,48.07 282.61,48.07 282.61,30.06 342.64,30.06 342.64,48.07 321.62,48.07 
		321.62,108.12 	"/>
	<path class="st2" d="M357.66,54.09c-3.39,0-6.5-1.13-9.01-3.02v57.17h18.01V51.07C364.14,52.96,361.04,54.09,357.66,54.09"/>
	<path class="st2" d="M366.66,39.07c0,4.98-4.03,9.01-9.01,9.01c-4.97,0-9.01-4.03-9.01-9.01c0-4.98,4.04-9.01,9.01-9.01
		C362.63,30.06,366.66,34.09,366.66,39.07"/>
	<path class="st2" d="M372.67,82.34V30.05h17.99v52.17c0,11.56,23.98,11.34,23.98,0V30.05h18.03v52.28
		c0,17.39-15.11,25.98-30.11,25.87C387.56,108.2,372.67,99.73,372.67,82.34"/>
	<path class="st2" d="M480.69,54.07c0-5.06-6.05-7.38-11.95-7.38c-5.9,0-12.08,1.64-12.08,7.38c0,6.06,9.51,5.98,12.08,5.98
		c15.97,0,30.03,6.17,30.03,24.04c0,18.27-15.22,24.02-30.03,24.02c-12.69,0-30.03-4.24-30.03-24.02h18.05c0,6.19,6,6.02,11.99,6.02
		c6.23,0,12.01,0,12.01-6.02c0-5.99-7.68-5.8-12-6c-13.32-0.59-30.06-6.2-29.97-23.9c0-18.08,13.41-24.2,30-24.2
		c13.91,0,30,6.19,30,24.07H480.69z"/>
	<path class="st2" d="M88.45,3.19C88,3.08,87.56,2.99,87.12,2.88c-0.44-0.12-0.87-0.25-1.31-0.37c-37.54-9.72-75.13,9.62-83.96,43.2
		c-0.1,0.4-0.18,0.79-0.28,1.19c-4.77,19.87,1.6,40.16,15.42,55.31c0.89-1.56,2.13-2.95,3.71-4.03c0.05-0.03,0.09-0.05,0.14-0.08
		C10.78,86.51,5.26,71.76,6.58,56.41c0.03-0.37,0.05-0.74,0.09-1.11C10.05,23.73,41.19,1.93,76.21,6.61
		c0.41,0.06,0.82,0.13,1.23,0.19c0.41,0.05,0.82,0.08,1.23,0.13c36.38,4.86,63.02,35.38,59.5,68.18c-3,28-27.03,48.58-56.62,50.98
		l2.97-6.04c-6.37,0.79-13.73,1.77-20.57,0.86c-9.21-1.23-17.76-4.18-25.32-8.43c-0.63,1.63-1.64,3.13-2.97,4.38
		c5.57,3.08,11.66,5.53,18.18,7.22c7.33,1.9,14.66,2.12,21.77,1.91l-3.36,6.02c32.76,1.36,62.38-17.62,70.21-47.4
		C151.63,49.75,127.45,13.29,88.45,3.19"/>
</g>
</svg>
