<?xml version="1.0" encoding="utf-8"?>
<!-- Generator: Adobe Illustrator 24.3.0, SVG Export Plug-In . SVG Version: 6.00 Build 0)  -->
<svg version="1.1" id="mesa" xmlns="http://www.w3.org/2000/svg" xmlns:xlink="http://www.w3.org/1999/xlink" x="0px" y="0px"
	 viewBox="0 0 512 512" style="enable-background:new 0 0 512 512;" xml:space="preserve">
<style type="text/css">
	.st0{fill:#4FADBA;}
</style>
<g>
	<path class="st0" d="M7.5,246.94h66.85c2.17,0,4.24-0.94,5.66-2.58c1.42-1.64,2.07-3.82,1.76-5.97c-0.34-2.38-0.51-4.81-0.51-7.23
		c0-27.84,22.65-50.48,50.48-50.48s50.48,22.65,50.48,50.48c0,2.43-0.17,4.86-0.51,7.23c-0.31,2.15,0.34,4.33,1.76,5.97
		s3.49,2.58,5.66,2.58l50.28,0c1.99,0,3.9-0.79,5.3-2.2c1.41-1.41,2.2-3.31,2.2-5.3l0-74.55c0-3.46,1.92-6.57,5.01-8.11
		c3.1-1.55,6.74-1.22,9.5,0.86c5.63,4.23,12.34,6.46,19.41,6.46c17.84,0,32.35-14.51,32.35-32.35S298.69,99.4,280.85,99.4
		c-7.07,0-13.78,2.23-19.4,6.46c-2.77,2.08-6.41,2.41-9.5,0.86c-3.09-1.55-5.02-4.65-5.02-8.11V7.5c0-4.14-3.36-7.5-7.5-7.5H24.07
		C10.8,0,0,10.8,0,24.07v19.7c0,4.14,3.36,7.5,7.5,7.5s7.5-3.36,7.5-7.5v-19.7c0-5,4.07-9.07,9.07-9.07h207.87v83.61
		c0,9.18,5.1,17.43,13.31,21.53c8.21,4.1,17.87,3.23,25.21-2.29c3.01-2.26,6.6-3.46,10.4-3.46c9.57,0,17.35,7.78,17.35,17.35
		s-7.78,17.35-17.35,17.35c-3.79,0-7.39-1.2-10.4-3.46c-7.34-5.51-16.99-6.39-25.21-2.29c-8.21,4.1-13.31,12.35-13.31,21.53l0,67.05
		l-34.71,0c0-0.26,0.01-0.52,0.01-0.79c0-36.11-29.38-65.48-65.48-65.48c-36.11,0-65.48,29.38-65.48,65.48c0,0.26,0,0.52,0,0.79H15
		V73.77c0-4.14-3.36-7.5-7.5-7.5S0,69.62,0,73.77v165.67C0,243.58,3.36,246.94,7.5,246.94L7.5,246.94z"/>
	<path class="st0" d="M48.13,90.33V48.91c0-0.43,0.35-0.78,0.78-0.78h41.42c4.14,0,7.5-3.36,7.5-7.5c0-4.14-3.36-7.5-7.5-7.5H48.92
		c-8.7,0-15.78,7.08-15.78,15.78v41.42c0,4.14,3.36,7.5,7.5,7.5S48.13,94.48,48.13,90.33z"/>
	<path class="st0" d="M463.08,33.13h-41.42c-4.14,0-7.5,3.36-7.5,7.5s3.36,7.5,7.5,7.5h41.42c0.43,0,0.78,0.35,0.78,0.78v41.42
		c0,4.14,3.36,7.5,7.5,7.5s7.5-3.36,7.5-7.5V48.92C478.87,40.21,471.79,33.13,463.08,33.13z"/>
	<path class="st0" d="M478.87,463.08v-41.42c0-4.14-3.36-7.5-7.5-7.5s-7.5,3.36-7.5,7.5v41.42c0,0.43-0.35,0.78-0.78,0.78h-41.42
		c-4.14,0-7.5,3.36-7.5,7.5s3.36,7.5,7.5,7.5h41.42C471.79,478.87,478.87,471.79,478.87,463.08L478.87,463.08z"/>
	<path class="st0" d="M90.34,463.87H48.92c-0.43,0-0.78-0.35-0.78-0.78v-41.42c0-4.14-3.36-7.5-7.5-7.5s-7.5,3.36-7.5,7.5v41.42
		c0,8.7,7.08,15.78,15.78,15.78h41.42c4.14,0,7.5-3.36,7.5-7.5C97.84,467.23,94.48,463.87,90.34,463.87z"/>
	<path class="st0" d="M487.93,0H272.57c-4.14,0-7.5,3.36-7.5,7.5v66.85c0,2.17,0.94,4.24,2.58,5.66c1.64,1.42,3.82,2.06,5.97,1.76
		c2.37-0.34,4.8-0.51,7.23-0.51c27.84,0,50.48,22.65,50.48,50.48s-22.65,50.48-50.48,50.48c-2.42,0-4.85-0.17-7.23-0.51
		c-2.15-0.3-4.33,0.34-5.97,1.76c-1.64,1.43-2.58,3.49-2.58,5.66l0,50.28c0,4.14,3.36,7.5,7.5,7.5l74.55,0
		c3.46,0,6.57,1.92,8.11,5.01c1.55,3.09,1.21,6.73-0.86,9.5c-4.23,5.63-6.46,12.34-6.46,19.4c0,17.84,14.51,32.35,32.35,32.35
		s32.35-14.51,32.35-32.35c0-7.07-2.23-13.77-6.46-19.4c-2.08-2.77-2.41-6.4-0.86-9.5c1.55-3.09,4.65-5.01,8.11-5.01h91.11
		c4.14,0,7.5-3.36,7.5-7.5V24.07C512,10.8,501.2,0,487.93,0L487.93,0z M497,231.93h-83.61c-9.18,0-17.43,5.1-21.53,13.31
		c-4.1,8.21-3.23,17.87,2.29,25.21c2.26,3.01,3.46,6.61,3.46,10.4c0,9.57-7.78,17.35-17.35,17.35s-17.35-7.78-17.35-17.35
		c0-3.79,1.2-7.39,3.46-10.4c5.51-7.34,6.39-17,2.29-25.21c-4.1-8.21-12.35-13.31-21.53-13.31l-67.05,0l0-34.71
		c36.48,0.4,66.27-29.11,66.27-65.48c0-36.11-29.38-65.48-65.48-65.48c-0.26,0-0.52,0-0.79,0V15h207.87c5,0,9.07,4.07,9.07,9.07
		L497,231.93L497,231.93z"/>
	<path class="st0" d="M244.35,431.99c-1.64-1.43-3.82-2.07-5.97-1.76c-2.38,0.34-4.81,0.51-7.23,0.51
		c-27.84,0-50.48-22.65-50.48-50.48s22.65-50.48,50.48-50.48c2.42,0,4.86,0.17,7.24,0.51c2.15,0.31,4.33-0.34,5.97-1.76
		s2.58-3.49,2.58-5.66l0-50.28c0-4.14-3.36-7.5-7.5-7.5l-74.55,0c-3.46,0-6.57-1.92-8.11-5.02c-1.54-3.09-1.21-6.73,0.86-9.5
		c4.23-5.63,6.46-12.34,6.46-19.41c0-17.84-14.51-32.35-32.35-32.35S99.4,213.31,99.4,231.15c0,7.07,2.24,13.78,6.47,19.41
		c2.08,2.76,2.41,6.4,0.86,9.49c-1.54,3.09-4.65,5.02-8.11,5.02H7.5c-4.14,0-7.5,3.36-7.5,7.5v215.36C0,501.2,10.8,512,24.07,512
		h215.37c4.14,0,7.5-3.36,7.5-7.5v-66.85C246.93,435.48,245.99,433.41,244.35,431.99L244.35,431.99z M231.93,497H24.07
		c-5,0-9.07-4.07-9.07-9.07V280.07h83.62c9.18,0,17.43-5.1,21.53-13.31c4.1-8.21,3.22-17.87-2.29-25.21
		c-2.26-3.01-3.46-6.61-3.46-10.4c0-9.57,7.78-17.35,17.35-17.35s17.35,7.78,17.35,17.35c0,3.79-1.2,7.39-3.46,10.4
		c-5.51,7.34-6.39,17-2.29,25.21c4.1,8.21,12.35,13.31,21.53,13.31l67.05,0l0,34.7c-0.26,0-0.52-0.01-0.79-0.01
		c-36.11,0-65.48,29.38-65.48,65.48s29.38,65.48,65.48,65.48c0.26,0,0.52,0,0.78-0.01L231.93,497L231.93,497z"/>
	<path class="st0" d="M504.5,265.07h-66.85c-2.17,0-4.24,0.94-5.66,2.58c-1.42,1.64-2.07,3.82-1.76,5.97
		c0.34,2.37,0.51,4.8,0.51,7.23c0,27.84-22.65,50.48-50.48,50.48s-50.48-22.65-50.48-50.48c0-2.42,0.17-4.86,0.51-7.23
		c0.31-2.15-0.34-4.33-1.76-5.97c-1.42-1.64-3.49-2.58-5.66-2.58l-50.28,0c-1.99,0-3.9,0.79-5.3,2.2c-1.41,1.41-2.2,3.31-2.2,5.3
		l0,74.55c0,3.46-1.92,6.57-5.02,8.11s-6.73,1.21-9.5-0.86c-5.63-4.23-12.34-6.46-19.41-6.46c-17.84,0-32.35,14.51-32.35,32.35
		s14.51,32.35,32.35,32.35c7.07,0,13.77-2.23,19.4-6.46c2.77-2.08,6.4-2.41,9.5-0.86c3.09,1.55,5.01,4.65,5.01,8.11v91.11
		c0,4.14,3.36,7.5,7.5,7.5H442c4.14,0,7.5-3.36,7.5-7.5s-3.36-7.5-7.5-7.5H280.07v-83.61c0-9.18-5.1-17.43-13.31-21.53
		c-8.21-4.1-17.87-3.23-25.21,2.29c-3.01,2.26-6.61,3.46-10.4,3.46c-9.57,0-17.35-7.78-17.35-17.35s7.78-17.35,17.35-17.35
		c3.79,0,7.39,1.2,10.4,3.46c7.34,5.52,17,6.39,25.21,2.29c8.21-4.1,13.31-12.35,13.31-21.53l0-67.05l34.7,0c0,0.26,0,0.52,0,0.78
		c0,36.11,29.38,65.48,65.48,65.48c36.11,0,65.48-29.38,65.48-65.48c0-0.26,0-0.52,0-0.78H497v207.87c0,5-4.07,9.07-9.07,9.07
		h-16.57c-4.14,0-7.5,3.36-7.5,7.5s3.36,7.5,7.5,7.5h16.57c13.27,0,24.07-10.8,24.07-24.07V272.57
		C512,268.42,508.64,265.07,504.5,265.07L504.5,265.07z"/>
</g>
</svg>
