<?xml version="1.0" encoding="utf-8"?>
<!-- Generator: Adobe Illustrator 24.3.0, SVG Export Plug-In . SVG Version: 6.00 Build 0)  -->
<svg version="1.1" id="mesa" xmlns="http://www.w3.org/2000/svg" xmlns:xlink="http://www.w3.org/1999/xlink" x="0px" y="0px"
	 viewBox="0 0 512 512" style="enable-background:new 0 0 512 512;" xml:space="preserve">
<style type="text/css">
	.st0{fill:#4FADBA;}
</style>
<g>
	<g>
		<path class="st0" d="M466.36,459.05h-55.85c-4.29,0-7.77-3.48-7.77-7.77V86.96c0-4.29,3.48-7.77,7.77-7.77h55.85
			c4.29,0,7.77,3.48,7.77,7.77v364.32C474.12,455.57,470.64,459.05,466.36,459.05z M418.27,443.5h40.32V94.73h-40.32V443.5z"/>
	</g>
	<g>
		<path class="st0" d="M375.15,459.05h-55.74c-4.29,0-7.77-3.48-7.77-7.77V122.11c0-4.29,3.48-7.77,7.77-7.77h55.74
			c4.29,0,7.77,3.48,7.77,7.77v329.17C382.91,455.57,379.44,459.05,375.15,459.05z M327.17,443.5h40.21V129.88h-40.21V443.5z"/>
	</g>
	<g>
		<path class="st0" d="M283.93,459.05h-55.74c-4.29,0-7.77-3.48-7.77-7.77V156.17c0-4.29,3.48-7.77,7.77-7.77h55.74
			c4.29,0,7.77,3.48,7.77,7.77v295.11C291.69,455.57,288.22,459.05,283.93,459.05z M235.95,443.5h40.21V163.94h-40.21V443.5z"/>
	</g>
	<g>
		<path class="st0" d="M192.71,459.05h-55.73c-4.29,0-7.77-3.48-7.77-7.77V203.7c0-4.29,3.48-7.77,7.77-7.77h55.73
			c4.29,0,7.77,3.48,7.77,7.77v247.58C200.47,455.57,197,459.05,192.71,459.05z M144.74,443.5h40.2V211.47h-40.2V443.5z"/>
	</g>
	<g>
		<path class="st0" d="M101.51,459.05H45.76c-4.29,0-7.77-3.48-7.77-7.77V253.28c0-4.29,3.48-7.77,7.77-7.77h55.75
			c4.29,0,7.77,3.48,7.77,7.77v197.99C109.27,455.57,105.79,459.05,101.51,459.05z M53.52,443.5h40.22V261.06H53.52V443.5z"/>
	</g>
</g>
<g>
	<path class="st0" d="M504.23,493.65H7.77c-4.29,0-7.77-3.48-7.77-7.77s3.48-7.77,7.77-7.77h496.47c4.29,0,7.77,3.48,7.77,7.77
		S508.52,493.65,504.23,493.65z"/>
</g>
<g>
	<g>
		<path class="st0" d="M45.88,200.17c-3.18,0-6.17-1.97-7.31-5.15c-1.45-4.03,0.64-8.48,4.67-9.93
			c2.09-0.76,209.73-76.36,300.81-182.38c2.79-3.24,7.68-3.64,10.95-0.83c3.26,2.8,3.63,7.7,0.83,10.96
			C262.08,121.97,57.19,196.58,48.51,199.7C47.64,200.01,46.75,200.17,45.88,200.17z"/>
	</g>
	<g>
		<path class="st0" d="M348.86,63.05c-4.29,0-7.77-3.48-7.77-7.77v-38.5l-36.1,0.19c-0.02,0-0.03,0-0.04,0
			c-4.27,0-7.74-3.45-7.77-7.74c-0.02-4.28,3.44-7.78,7.73-7.81l43.91-0.22c0.02,0,0.03,0,0.03,0c2.06,0,4.03,0.82,5.49,2.26
			c1.46,1.46,2.29,3.44,2.29,5.51v46.3C356.62,59.57,353.14,63.05,348.86,63.05z"/>
	</g>
</g>
</svg>
